<svg width="1024" height="1024" viewBox="0 0 1024 1024" fill="none" xmlns="http://www.w3.org/2000/svg">
<g clip-path="url(#clip0_42_2)">
<path d="M724.208 303.062L757 338.592L757 692.953L721.866 724.275L686.264 757H331.178L299.792 721.938L267 686.408L267 331.112L302.134 300.724L337.736 268L692.822 268L724.208 303.062Z" fill="#2E2E2E"/>
<path d="M672.306 353.386L697 380.124L697 646.801L670.542 670.373L643.731 695H376.33L352.694 668.614L328 641.875L328 374.495L354.458 351.627L381.269 327L648.67 327L672.306 353.386Z" fill="#272727"/>
<path d="M233.938 162.698L252.013 173.454L388.329 321.266L395.656 338.686L403.46 356.75L355.735 400.762L338.029 390.027L319.954 379.271L183.278 231.068L176.311 214.038L168.507 195.975L216.232 151.963L233.938 162.698Z" fill="#232323"/>
<path d="M686.258 633.173L704.333 643.929L840.649 791.742L847.976 809.162L855.78 827.225L808.056 871.237L790.349 860.502L772.275 849.746L635.598 701.544L628.631 684.514L620.828 666.45L668.552 622.438L686.258 633.173Z" fill="#232323"/>
<path d="M686.258 390.019L704.333 379.263L840.649 231.45L847.976 214.03L855.78 195.967L808.056 151.955L790.349 162.69L772.275 173.445L635.598 321.648L628.631 338.678L620.828 356.741L668.552 400.754L686.258 390.019Z" fill="#232323"/>
<path d="M234.489 860.494L252.564 849.738L388.881 701.926L396.208 684.506L404.011 666.442L356.287 622.43L338.581 633.165L320.506 643.921L183.83 792.124L176.863 809.154L169.059 827.217L216.783 871.229L234.489 860.494Z" fill="#232323"/>
<path d="M297.341 38.8348C274.486 135.916 258.994 113.28 198.144 177.229L191.99 173.275L290.068 34.1617L297.341 38.8348Z" fill="#C4C4C4"/>
<path d="M95.5642 306.48C118.42 209.399 133.911 232.035 194.761 168.086L200.916 172.04L102.837 311.153L95.5642 306.48Z" fill="#C4C4C4"/>
<path d="M329.6 273.693C232.518 250.838 255.155 235.346 191.205 174.496L195.16 168.342L334.273 266.42L329.6 273.693Z" fill="#C4C4C4"/>
<path d="M61.7205 74.0884C158.802 96.9438 136.165 112.436 200.115 173.286L196.161 179.44L57.0474 81.3614L61.7205 74.0884Z" fill="#C4C4C4"/>
<path d="M930.341 38.8348C907.486 135.916 891.994 113.28 831.144 177.229L824.99 173.275L923.068 34.1617L930.341 38.8348Z" fill="#C4C4C4"/>
<path d="M728.564 306.48C751.42 209.399 766.911 232.035 827.761 168.086L833.916 172.04L735.837 311.153L728.564 306.48Z" fill="#C4C4C4"/>
<path d="M962.6 273.693C865.518 250.838 888.155 235.346 824.205 174.496L828.16 168.342L967.273 266.42L962.6 273.693Z" fill="#C4C4C4"/>
<path d="M694.721 74.0884C791.802 96.9438 769.165 112.436 833.115 173.286L829.161 179.44L690.047 81.3614L694.721 74.0884Z" fill="#C4C4C4"/>
<path d="M929.341 712.835C906.486 809.916 890.994 787.279 830.144 851.229L823.99 847.275L922.068 708.162L929.341 712.835Z" fill="#C4C4C4"/>
<path d="M727.564 980.48C750.42 883.399 765.911 906.035 826.761 842.086L832.916 846.04L734.837 985.153L727.564 980.48Z" fill="#C4C4C4"/>
<path d="M961.6 947.693C864.518 924.838 887.155 909.346 823.205 848.496L827.16 842.342L966.273 940.42L961.6 947.693Z" fill="#C4C4C4"/>
<path d="M693.721 748.088C790.802 770.944 768.165 786.436 832.115 847.286L828.161 853.44L689.047 755.361L693.721 748.088Z" fill="#C4C4C4"/>
<path d="M296.4 712.835C273.544 809.916 258.052 787.279 197.202 851.229L191.048 847.275L289.127 708.162L296.4 712.835Z" fill="#C4C4C4"/>
<path d="M94.6225 980.48C117.478 883.399 132.97 906.035 193.82 842.086L199.974 846.04L101.896 985.153L94.6225 980.48Z" fill="#C4C4C4"/>
<path d="M328.658 947.693C231.577 924.838 254.213 909.346 190.264 848.496L194.218 842.342L333.331 940.42L328.658 947.693Z" fill="#C4C4C4"/>
<path d="M60.7789 748.088C157.86 770.944 135.224 786.436 199.173 847.286L195.219 853.44L56.1058 755.361L60.7789 748.088Z" fill="#C4C4C4"/>
</g>
<defs>
<clipPath id="clip0_42_2">
<rect width="1024" height="1024" fill="white"/>
</clipPath>
</defs>
</svg>
