<svg width="72" height="72" viewBox="0 0 72 72" fill="none" xmlns="http://www.w3.org/2000/svg">
<g clip-path="url(#clip0_14_8)">
<mask id="mask0_14_8" style="mask-type:luminance" maskUnits="userSpaceOnUse" x="0" y="0" width="72" height="72">
<path d="M72 0H0V72H72V0Z" fill="white"/>
</mask>
<g mask="url(#mask0_14_8)">
<path d="M71.643 26.8439C69.324 14.589 57.066 13.065 57.066 13.065H2.16898C0.356986 13.065 0.131986 15.4589 0.131986 15.4589C0.131986 15.4589 -0.114014 37.431 0.0659863 50.925C0.557987 58.197 7.82398 58.941 7.82398 58.941C7.82398 58.941 32.625 58.872 43.722 58.7939C51.036 57.5159 51.771 51.096 51.696 47.592C64.752 48.312 73.962 39.099 71.643 26.8439ZM38.457 37.377C34.719 41.736 26.424 49.305 26.424 49.305C26.424 49.305 26.061 49.662 25.494 49.374C25.266 49.203 25.17 49.104 25.17 49.104C23.841 47.781 15.066 39.9569 13.068 37.242C10.941 34.347 9.94499 29.142 12.795 26.112C15.648 23.082 21.81 22.854 25.884 27.333C25.884 27.333 30.579 21.987 36.288 24.444C42 26.904 41.784 33.4769 38.457 37.377ZM56.976 38.811C54.192 39.159 51.93 38.895 51.93 38.895V21.852H57.24C57.24 21.852 63.153 23.505 63.153 29.766C63.153 35.505 60.198 37.767 56.976 38.811Z" fill="#161616"/>
</g>
</g>
<defs>
<clipPath id="clip0_14_8">
<rect width="72" height="72" fill="white"/>
</clipPath>
</defs>
</svg>
