<svg width="479" height="1080" viewBox="0 0 479 1080" fill="none" xmlns="http://www.w3.org/2000/svg">
<path d="M450.392 -171.743C450.098 -173.799 411.336 -146.743 407.312 -143.808C357.225 -107.279 308.254 -68.5513 260.234 -29.3771C216.308 6.45741 170.957 45.4878 134.36 89.0931C116.702 110.132 107.328 143.791 101.04 169.7C81.9329 248.42 108.432 313.874 146.139 382.913C252.019 576.766 358.235 768.866 415.726 984.014C437.38 1065.05 453.152 1149.48 457.46 1233.41C459.987 1282.64 461.101 1347.45 427.338 1387.89C390.516 1431.99 305.74 1440.38 255.186 1451C177.44 1467.33 99.1254 1479.09 20.2646 1488.19" stroke="#FFE924" stroke-width="40" stroke-linecap="round"/>
</svg>
