<svg width="1920" height="1633" viewBox="0 0 1920 1633" fill="none" xmlns="http://www.w3.org/2000/svg">
<g id="Noodles" filter="url(#filter0_d_11_24)">
<path id="Vector 11" d="M1777.58 567.017C1779.36 565.954 1739.47 540.595 1735.21 538.012C1682.21 505.849 1627.62 475.562 1572.98 446.325C1522.99 419.581 1469.51 392.752 1415.18 375.763C1388.96 367.566 1354.29 371.873 1327.96 376.044C1247.95 388.716 1197.74 438.372 1148.54 499.752C1010.39 672.102 873.991 844.088 697.559 979.977C631.105 1031.16 559.257 1078.22 483.456 1114.51C438.987 1135.8 379.602 1161.77 329.284 1146.18C274.407 1129.18 234.03 1054.16 204.766 1011.59C159.761 946.128 118.758 878.377 79.9999 809.098" stroke="#FFF38B" stroke-width="40" stroke-linecap="round"/>
<path id="Vector 8" d="M1517.51 266.538C1517.35 265.896 1532 269.317 1533.53 269.709M1641.66 306.317C1649.36 310.449 1656.1 319.288 1661.02 326.201C1675.95 347.206 1675.84 369.672 1672.85 394.519C1664.44 464.288 1332.37 413.004 1340.77 483.355C1343.93 509.853 1672.59 657.234 1681.22 682.54M1766.65 722.963C1791.55 718.615 1817.6 709.845 1841.98 703.229" stroke="#59CEDE" stroke-width="25" stroke-linecap="round"/>
<path id="Vector 1" d="M1603.39 -171.743C1603.1 -173.799 1564.34 -146.743 1560.31 -143.808C1510.22 -107.279 1461.25 -68.5513 1413.23 -29.3771C1369.31 6.45741 1323.96 45.4878 1287.36 89.0931C1269.7 110.132 1260.33 143.791 1254.04 169.7C1234.93 248.42 1261.43 313.874 1299.14 382.913C1405.02 576.766 1511.24 768.866 1568.73 984.014C1590.38 1065.05 1606.15 1149.48 1610.46 1233.41C1612.99 1282.64 1614.1 1347.45 1580.34 1387.89C1543.52 1431.99 1458.74 1440.38 1408.19 1451C1330.44 1467.33 1252.13 1479.09 1173.26 1488.19" stroke="#FFE818" stroke-width="40" stroke-linecap="round"/>
<path id="Vector 3" d="M-52.8118 1420.48C-52.9737 1422.46 -11.0697 1405.43 -6.69318 1403.55C47.7857 1380.08 101.689 1354.33 154.8 1327.96C203.383 1303.84 253.973 1277.03 297.365 1244.11C318.301 1228.22 334.183 1198.8 345.544 1175.96C380.062 1106.56 369.214 1039.87 348.668 967.462C290.977 764.138 232.6 562.379 224.573 349.445C221.55 269.243 224.734 187.124 238.509 107.9C246.59 61.4241 259.292 0.718208 299.368 -29.8534C343.074 -63.1942 423.952 -53.0447 473.374 -52.2351C549.377 -50.99 624.942 -45.358 700.452 -37.1283" stroke="#44DBF0" stroke-width="35" stroke-linecap="round"/>
<path id="Vector 10" d="M900.613 1541.84C901.678 1543.51 924.859 1504.67 927.216 1500.53C956.552 1448.98 984.051 1395.94 1010.55 1342.9C1034.78 1294.37 1059 1242.49 1073.79 1190.07C1080.92 1164.77 1075.87 1131.73 1071.17 1106.65C1056.9 1030.47 1008.06 983.783 948.026 938.377C779.464 810.88 611.296 685.046 476.577 519.952C425.834 457.768 378.891 390.315 342.144 318.79C320.586 276.831 294.142 220.731 307.702 172.183C322.49 119.239 393.151 78.6011 433.079 49.4659C494.484 4.65994 558.182 -36.3805 623.401 -75.3152" stroke="#67EDFF" stroke-width="35" stroke-linecap="round"/>
<path id="Vector 9" d="M1051.18 882.197C925.675 832.423 751.625 729.439 1059.47 715.693C1367.32 701.947 1294.05 666.638 1235.72 624.221C1149.95 561.843 1029.01 456.531 1340.54 521.043" stroke="#DBDD86" stroke-width="20" stroke-linecap="round"/>
<path id="Vector 4" d="M797.945 1247.07C796.816 1248.48 837.075 1256.95 841.334 1257.75C894.349 1267.76 948.094 1275.74 1001.56 1282.86C1050.46 1289.38 1102.24 1294.89 1151.7 1292.12C1175.57 1290.79 1202.51 1276.68 1222.69 1265.23C1284.01 1230.44 1309.74 1174.64 1331.06 1109.58C1390.94 926.915 1449.51 745.078 1551.73 580.417C1590.23 518.397 1634.39 458.087 1685.06 405.347C1714.79 374.407 1755.24 335.085 1801 332.408C1850.92 329.489 1906.75 378.269 1943.61 404.009C2000.29 443.595 2054.72 495.476 2107.48 540.079" stroke="#23E5FF" stroke-width="70" stroke-linecap="round"/>
<path id="Vector 6" d="M1337.99 755.486C1338.43 755.866 1326.23 760.82 1324.93 761.315C1308.8 767.479 1292.33 773.048 1275.89 778.327C1260.85 783.156 1244.86 787.834 1229.12 789.772C1221.52 790.707 1212.24 787.793 1205.23 785.333C1183.94 777.859 1172.66 761.74 1162.25 742.459C1133.01 688.319 1104.23 634.367 1062.68 588.304C1047.03 570.954 1029.69 554.465 1010.74 540.729C999.614 532.672 995.682 572.589 981.113 574.345C954.107 577.601 930.361 540.966 929.216 554.994C913.609 570.683 899.411 590.118 885.325 607.165" stroke="#73DDEC" stroke-width="20" stroke-linecap="round"/>
<path id="Vector 7" d="M534.433 459.594C535.013 459.089 648.06 404.442 603.685 374.608C582.246 366.417 560.35 359.015 538.506 351.999C518.525 345.581 497.265 339.365 476.348 336.789C466.255 335.546 453.914 339.42 444.601 342.689C416.305 352.622 401.32 374.043 387.482 399.667C348.625 471.617 281.265 374.608 168.967 399.667C93.8798 429.693 6.83252 425.042 55.3399 514.082C77.7883 555.289 138.269 605.527 146.757 623.085C176.94 685.519 91.222 783.199 77.7883 648.802" stroke="#F3F588" stroke-width="30" stroke-linecap="round"/>
<path id="Vector 2" d="M1016.44 -52.0344C1016.7 -53.6021 989.756 -39.4683 986.933 -37.9078C951.797 -18.4829 1037.5 106.96 1002.97 128.658C971.379 148.507 817.677 66.2853 788.55 93.0058C774.497 105.898 762.445 129.399 753.679 147.631C727.047 203.023 847.711 353.204 854.45 410.081C873.372 569.787 217.5 470 761.284 798.686C854.45 881 748.177 926.938 733.419 989.755C724.762 1026.61 712.143 1074.78 685.23 1099.58C655.878 1126.64 607.321 1119.93 577.218 1120.09C530.923 1120.35 485.248 1117.12 439.814 1111.85" stroke="#DACD58" stroke-width="30" stroke-linecap="round"/>
<path id="Vector 5" d="M959.471 166.771C960.569 165.92 966.592 196.933 967.158 200.213C974.212 241.039 979.707 282.401 984.539 323.535C988.958 361.163 992.575 400.987 989.863 438.936C988.555 457.246 908.959 401.544 740.353 386.144C374.881 396.36 904.431 515.8 847.572 574.487C706.602 618.295 566.286 661.106 438.638 737.638C390.559 766.465 343.727 799.654 302.629 837.936C278.519 860.393 247.846 890.983 245.247 926.093C242.413 964.384 279.204 1007.83 298.531 1036.44C328.253 1080.43 360.374 1122.5 393.995 1163.54" stroke="#FFE923" stroke-width="50" stroke-linecap="round"/>
<path id="Vector 12" d="M83.9999 275.5C70.4999 352.167 69.1999 505.9 172 507.5C274.8 509.1 334.5 496.5 351.5 490" stroke="#FBFF34" stroke-width="20" stroke-linecap="round"/>
</g>
<defs>
<filter id="filter0_d_11_24" x="-139.312" y="-256.853" width="2350.79" height="1889.24" filterUnits="userSpaceOnUse" color-interpolation-filters="sRGB">
<feFlood flood-opacity="0" result="BackgroundImageFix"/>
<feColorMatrix in="SourceAlpha" type="matrix" values="0 0 0 0 0 0 0 0 0 0 0 0 0 0 0 0 0 0 127 0" result="hardAlpha"/>
<feOffset dy="4"/>
<feGaussianBlur stdDeviation="34.5"/>
<feComposite in2="hardAlpha" operator="out"/>
<feColorMatrix type="matrix" values="0 0 0 0 0 0 0 0 0 0 0 0 0 0 0 0 0 0 0.9 0"/>
<feBlend mode="normal" in2="BackgroundImageFix" result="effect1_dropShadow_11_24"/>
<feBlend mode="normal" in="SourceGraphic" in2="effect1_dropShadow_11_24" result="shape"/>
</filter>
</defs>
</svg>
