<svg width="783" height="822" viewBox="0 0 783 822" fill="none" xmlns="http://www.w3.org/2000/svg">
<path fill-rule="evenodd" clip-rule="evenodd" d="M335.33 508.83C358.024 530.027 388.497 543 422 543C492.14 543 549 486.14 549 416C549 376.184 530.677 340.647 502.003 317.361L335.33 508.83Z" fill="#767676"/>
<line x1="321.53" y1="601.702" x2="260.53" y2="771.702" stroke="#767676" stroke-width="16"/>
<line x1="583.262" y1="331.625" x2="721.09" y2="214.901" stroke="#767676" stroke-width="16"/>
<line x1="603.845" y1="423.561" x2="781.569" y2="391.388" stroke="#767676" stroke-width="16"/>
<line x1="575.702" y1="513.47" x2="745.702" y2="574.47" stroke="#767676" stroke-width="16"/>
<line x1="506.375" y1="577.262" x2="623.099" y2="715.09" stroke="#767676" stroke-width="16"/>
<line x1="414.439" y1="597.845" x2="446.612" y2="775.569" stroke="#767676" stroke-width="16"/>
<rect width="22.8174" height="1029.22" transform="matrix(-0.766827 -0.641854 -0.641854 0.766827 755.916 32.0155)" fill="black"/>
<path fill-rule="evenodd" clip-rule="evenodd" d="M310.274 528.878L305.048 535.122C249.433 506.954 209.382 451.347 204.075 384.655C195.971 282.804 271.967 193.668 373.818 185.563C439.312 180.352 499.549 209.916 536.363 258.768L518.795 279.757C487.75 255.213 447.715 241.879 405.152 245.266C315.689 252.385 248.935 330.68 256.054 420.144C259.525 463.764 279.917 501.986 310.274 528.878Z" fill="#767676"/>
<path d="M574.978 77.6093L575.042 110.685L605.573 120.176L575.081 131.127L575.145 164.203L556.237 137.895L525.746 148.846L544.551 121.636L525.642 95.3278L556.173 104.819L574.978 77.6093Z" fill="#767676"/>
<path d="M131.37 468.696L157.003 479.02L173.927 458.354L172.845 485.4L198.478 495.723L172.176 502.115L171.094 529.16L155.921 506.065L129.619 512.457L146.543 491.792L131.37 468.696Z" fill="#767676"/>
<path d="M38.3428 555.355L71.0857 560.037L84.8582 531.183L91.3219 562.93L124.065 567.611L95.3166 582.55L101.78 614.297L77.5493 591.783L48.8012 606.722L62.5737 577.869L38.3428 555.355Z" fill="#767676"/>
<path d="M494.678 4.5571L503.892 45.4644L544.29 48.7754L509.587 70.7466L518.802 111.654L488.14 84.3255L453.437 106.297L469.19 67.4356L438.528 40.1072L478.925 43.4182L494.678 4.5571Z" fill="#767676"/>
<rect x="395.579" y="112.701" width="28.2617" height="28.2617" transform="rotate(-18.4082 395.579 112.701)" fill="#767676"/>
<path d="M432.834 82.9253L419.041 128.86L404.327 121.494L432.834 82.9253Z" fill="#767676"/>
<path d="M394.338 159.828L422.846 121.259L408.132 113.894L394.338 159.828Z" fill="#767676"/>
<path d="M451.367 140.848L412.798 112.341L405.432 127.055L451.367 140.848Z" fill="#767676"/>
<path d="M376.252 103.247L422.187 117.041L414.822 131.755L376.252 103.247Z" fill="#767676"/>
<rect x="395.579" y="112.701" width="28.2617" height="28.2617" transform="rotate(-18.4082 395.579 112.701)" fill="#767676"/>
<path d="M432.834 82.9253L419.041 128.86L404.327 121.494L432.834 82.9253Z" fill="#767676"/>
<path d="M394.338 159.828L422.846 121.259L408.132 113.894L394.338 159.828Z" fill="#767676"/>
<path d="M451.367 140.848L412.798 112.341L405.432 127.055L451.367 140.848Z" fill="#767676"/>
<path d="M376.252 103.247L422.187 117.041L414.822 131.755L376.252 103.247Z" fill="#767676"/>
<rect x="44.8669" y="462.568" width="40.1274" height="40.1274" transform="rotate(-103.314 44.8669 462.568)" fill="#767676"/>
<path d="M7.45404 406.126L70.6778 431.424L58.4062 451.305L7.45404 406.126Z" fill="#767676"/>
<path d="M111.36 470.264L60.408 425.085L48.1364 444.966L111.36 470.264Z" fill="#767676"/>
<path d="M91.7073 387.219L46.5284 438.171L66.4089 450.443L91.7073 387.219Z" fill="#767676"/>
<path d="M29.0608 488.708L54.3593 425.485L74.2397 437.756L29.0608 488.708Z" fill="#767676"/>
<rect x="44.8669" y="462.568" width="40.1274" height="40.1274" transform="rotate(-103.314 44.8669 462.568)" fill="#767676"/>
<path d="M7.45404 406.126L70.6778 431.424L58.4062 451.305L7.45404 406.126Z" fill="#767676"/>
<path d="M111.36 470.264L60.408 425.085L48.1364 444.966L111.36 470.264Z" fill="#767676"/>
<path d="M91.7073 387.219L46.5284 438.171L66.4089 450.443L91.7073 387.219Z" fill="#767676"/>
<path d="M29.0608 488.708L54.3593 425.485L74.2397 437.756L29.0608 488.708Z" fill="#767676"/>
<path d="M229.665 128.776L247.823 149.607L272.282 138.872L259.044 162.481L277.202 183.312L250.863 177.073L237.626 200.683L234.585 173.217L208.247 166.978L232.706 156.242L229.665 128.776Z" fill="#767676"/>
<rect x="111.581" y="159.005" width="51.0992" height="51.0992" transform="rotate(-83.3827 111.581 159.005)" fill="#767676"/>
<path d="M91.2936 75.1948L156 132.927L132.678 151.399L91.2936 75.1948Z" fill="#767676"/>
<path d="M187.842 197.084L146.457 120.879L123.136 139.352L187.842 197.084Z" fill="#767676"/>
<path d="M200.365 89.1351L124.16 130.52L142.633 153.841L200.365 89.1351Z" fill="#767676"/>
<path d="M81.3104 183.438L139.042 118.732L157.515 142.053L81.3104 183.438Z" fill="#767676"/>
<rect x="97.6183" y="305.851" width="37.4258" height="37.4258" transform="rotate(-107.672 97.6183 305.851)" fill="#767676"/>
<path d="M58.8255 256.012L119.415 275.059L109.411 294.417L58.8255 256.012Z" fill="#767676"/>
<path d="M160.001 308.296L109.415 269.891L99.4114 289.249L160.001 308.296Z" fill="#767676"/>
<path d="M135.839 232.459L97.4345 283.045L116.792 293.048L135.839 232.459Z" fill="#767676"/>
<path d="M84.771 331.281L103.818 270.692L123.176 280.695L84.771 331.281Z" fill="#767676"/>
</svg>
