<svg width="1024" height="1024" viewBox="0 0 1024 1024" fill="none" xmlns="http://www.w3.org/2000/svg">
<path d="M490 127.474L512.5 111L534.5 127.474L535 606H490V127.474Z" fill="#0066FF"/>
<rect x="308" y="718" width="408" height="45" fill="#0066FF"/>
<rect x="698" y="119.814" width="45" height="555.261" fill="#0066FF"/>
<path fill-rule="evenodd" clip-rule="evenodd" d="M723.303 118.791C698.447 113.314 643.753 118.788 612.725 178.952C604.748 194.418 599.155 216.7 594.969 240.72C590.691 265.266 587.567 293.608 585.311 322.409C580.797 380.032 579.663 440.737 580.001 479.146L580.117 492.455L592.44 497.487C601.563 501.211 616.093 509.64 627.99 522.001C639.775 534.246 647.643 548.862 647.501 565.616C647.445 572.168 643.79 579.806 633.017 589.515C622.258 599.211 607.498 608.214 590.964 617.966C589.813 618.645 588.649 619.33 587.475 620.02L587.439 620.041C572.765 628.675 556.593 638.191 544.537 648.496C531.902 659.295 517.681 676.162 521.823 698.926C525.303 718.049 527.579 741.792 528.574 763H568.615C567.572 739.142 565.003 712.793 561.177 691.765C561.069 691.173 560.41 687.548 570.526 678.902C579.786 670.988 593.022 663.186 608.903 653.824L608.904 653.823C609.692 653.359 610.486 652.891 611.286 652.419C627.252 643.002 645.555 632.063 659.795 619.229C674.022 606.408 687.305 588.927 687.499 565.954C687.757 535.467 673.209 511.302 656.81 494.264C645.025 482.018 631.598 472.687 619.945 466.369C619.938 428.888 621.245 375.886 625.189 325.533C627.391 297.416 630.393 270.436 634.375 247.588C638.449 224.213 643.252 207.028 648.275 197.287C669.247 156.623 703.553 155.398 714.696 157.854L723.303 118.791ZM568.936 798H528.918C528.809 800.626 528.66 803.046 528.471 805.221C526.031 809.878 522.232 815.771 518.081 820.649C515.596 823.568 513.503 825.508 512.05 826.555C511.7 826.808 511.453 826.962 511.305 827.046C511.197 827.094 511.141 827.125 511.141 827.129C511.14 827.133 511.194 827.11 511.305 827.046C511.699 826.875 512.792 826.5 514.5 826.5V866.5C523.526 866.5 530.85 862.311 535.434 859.008C540.403 855.428 544.841 850.923 548.544 846.571C555.92 837.904 562.43 827.404 566.212 819.07L567.487 816.261L567.856 813.198C568.375 808.894 568.732 803.755 568.936 798Z" fill="#0066FF"/>
<rect width="45" height="555.261" transform="matrix(-1 0 0 1 327 119.814)" fill="#0066FF"/>
<path fill-rule="evenodd" clip-rule="evenodd" d="M301.697 118.791C326.553 113.314 381.247 118.788 412.275 178.952C420.252 194.418 425.845 216.7 430.031 240.72C434.31 265.266 437.433 293.608 439.689 322.409C444.203 380.032 445.337 440.737 444.999 479.146L444.883 492.455L432.56 497.487C423.437 501.211 408.907 509.64 397.01 522.001C385.225 534.246 377.357 548.862 377.499 565.616C377.555 572.168 381.21 579.806 391.983 589.515C402.742 599.211 417.502 608.214 434.036 617.966C435.19 618.647 436.357 619.333 437.534 620.026L437.561 620.041L437.561 620.042C452.235 628.676 468.407 638.191 480.464 648.496C493.098 659.295 507.319 676.162 503.177 698.926C499.697 718.049 497.421 741.792 496.426 763H456.385C457.428 739.142 459.997 712.793 463.823 691.765C463.931 691.173 464.59 687.548 454.474 678.902C445.214 670.987 431.978 663.185 416.096 653.823C415.308 653.359 414.514 652.891 413.714 652.419C397.748 643.002 379.445 632.063 365.205 619.229C350.978 606.408 337.695 588.927 337.501 565.954C337.243 535.467 351.792 511.302 368.19 494.264C379.975 482.018 393.402 472.687 405.055 466.369C405.062 428.888 403.755 375.886 399.811 325.533C397.609 297.416 394.607 270.436 390.625 247.588C386.551 224.213 381.749 207.028 376.725 197.287C355.753 156.623 321.447 155.398 310.304 157.854L301.697 118.791ZM456.064 798C456.268 803.755 456.625 808.894 457.144 813.198L457.439 815.649L458.322 817.954C461.426 826.065 467.487 837.106 475.766 846.471C483.562 855.29 496.81 866.5 514.5 866.5V826.5C514.19 826.5 511.021 825.959 505.734 819.978C501.693 815.406 498.441 809.865 496.58 805.791C496.367 803.471 496.201 800.858 496.082 798H456.064Z" fill="#0066FF"/>
<mask id="mask0_16_2" style="mask-type:alpha" maskUnits="userSpaceOnUse" x="282" y="111" width="461" height="756">
<path d="M490 127.474L512.5 111L534.5 127.474L535 606H490V127.474Z" fill="#0066FF"/>
<rect x="308" y="718" width="408" height="45" fill="#0066FF"/>
<rect x="698" y="119.814" width="45" height="555.261" fill="#0066FF"/>
<path fill-rule="evenodd" clip-rule="evenodd" d="M723.303 118.791C698.447 113.314 643.753 118.788 612.725 178.952C604.748 194.418 599.155 216.7 594.969 240.72C590.691 265.266 587.567 293.608 585.311 322.409C580.797 380.032 579.663 440.737 580.001 479.146L580.117 492.455L592.44 497.487C601.563 501.211 616.093 509.64 627.99 522.001C639.775 534.246 647.643 548.862 647.501 565.616C647.445 572.168 643.79 579.806 633.017 589.515C622.258 599.211 607.498 608.214 590.964 617.966C589.813 618.645 588.649 619.33 587.475 620.02L587.439 620.041C572.765 628.675 556.593 638.191 544.537 648.496C531.902 659.295 517.681 676.162 521.823 698.926C525.303 718.049 527.579 741.792 528.574 763H568.615C567.572 739.142 565.003 712.793 561.177 691.765C561.069 691.173 560.41 687.548 570.526 678.902C579.786 670.988 593.022 663.186 608.903 653.824L608.904 653.823C609.692 653.359 610.486 652.891 611.286 652.419C627.252 643.002 645.555 632.063 659.795 619.229C674.022 606.408 687.305 588.927 687.499 565.954C687.757 535.467 673.209 511.302 656.81 494.264C645.025 482.018 631.598 472.687 619.945 466.369C619.938 428.888 621.245 375.886 625.189 325.533C627.391 297.416 630.393 270.436 634.375 247.588C638.449 224.213 643.252 207.028 648.275 197.287C669.247 156.623 703.553 155.398 714.696 157.854L723.303 118.791ZM568.936 798H528.918C528.809 800.626 528.66 803.046 528.471 805.221C526.031 809.878 522.232 815.771 518.081 820.649C515.596 823.568 513.503 825.508 512.05 826.555C511.7 826.808 511.453 826.962 511.305 827.046C511.197 827.094 511.141 827.125 511.141 827.129C511.14 827.133 511.194 827.11 511.305 827.046C511.699 826.875 512.792 826.5 514.5 826.5V866.5C523.526 866.5 530.85 862.311 535.434 859.008C540.403 855.428 544.841 850.923 548.544 846.571C555.92 837.904 562.43 827.404 566.212 819.07L567.487 816.261L567.856 813.198C568.375 808.894 568.732 803.755 568.936 798Z" fill="#0066FF"/>
<rect width="45" height="555.261" transform="matrix(-1 0 0 1 327 119.814)" fill="#0066FF"/>
<path fill-rule="evenodd" clip-rule="evenodd" d="M301.697 118.791C326.553 113.314 381.247 118.788 412.275 178.952C420.252 194.418 425.845 216.7 430.031 240.72C434.31 265.266 437.433 293.608 439.689 322.409C444.203 380.032 445.337 440.737 444.999 479.146L444.883 492.455L432.56 497.487C423.437 501.211 408.907 509.64 397.01 522.001C385.225 534.246 377.357 548.862 377.499 565.616C377.555 572.168 381.21 579.806 391.983 589.515C402.742 599.211 417.502 608.214 434.036 617.966C435.19 618.647 436.357 619.333 437.534 620.026L437.561 620.041L437.561 620.042C452.235 628.676 468.407 638.191 480.464 648.496C493.098 659.295 507.319 676.162 503.177 698.926C499.697 718.049 497.421 741.792 496.426 763H456.385C457.428 739.142 459.997 712.793 463.823 691.765C463.931 691.173 464.59 687.548 454.474 678.902C445.214 670.987 431.978 663.185 416.096 653.823C415.308 653.359 414.514 652.891 413.714 652.419C397.748 643.002 379.445 632.063 365.205 619.229C350.978 606.408 337.695 588.927 337.501 565.954C337.243 535.467 351.792 511.302 368.19 494.264C379.975 482.018 393.402 472.687 405.055 466.369C405.062 428.888 403.755 375.886 399.811 325.533C397.609 297.416 394.607 270.436 390.625 247.588C386.551 224.213 381.749 207.028 376.725 197.287C355.753 156.623 321.447 155.398 310.304 157.854L301.697 118.791ZM456.064 798C456.268 803.755 456.625 808.894 457.144 813.198L457.439 815.649L458.322 817.954C461.426 826.065 467.487 837.106 475.766 846.471C483.562 855.29 496.81 866.5 514.5 866.5V826.5C514.19 826.5 511.021 825.959 505.734 819.978C501.693 815.406 498.441 809.865 496.58 805.791C496.367 803.471 496.201 800.858 496.082 798H456.064Z" fill="#0066FF"/>
</mask>
<g mask="url(#mask0_16_2)">
<rect x="151" y="450" width="755" height="457" fill="#FFF500"/>
</g>
</svg>
