<svg width="1133" height="772" viewBox="0 0 1133 772" fill="none" xmlns="http://www.w3.org/2000/svg">
<path d="M996.5 206.5L1109.5 251.5H1122L1109.5 302L1122 409.5L1065 420L1032.5 438L1025.5 491.5H987.5L969.5 512L938 533L892 540L856 569L816 590.5L805.5 617L843.5 657.5L885.5 643L929.5 661.5L914 692.5L879.5 698.5L860.5 692.5L836 715L805.5 724L767.5 763L726 753V740.5L742 724L726 692.5H711.5L694.5 676.5H662V665.5L742 608.5L716 601.5L650 608.5L611.5 590.5L623 575.5L601.5 563.5H662L623 552L552 563.5V575.5L504 643L478 636.5L480.5 655L486 665.5L478 684.5L458 665.5L411 688L384 657.5L416.5 617L430 608.5L438 563.5L497.5 575.5V540L472.5 525L443.5 468L450 432L362.5 383H302L178.5 432L53 393L10.5 348L38.5 295.5L61 302L53 251.5L145 178.5L153 139.5L131.5 63H153L178.5 40.5L344.5 63L351.5 80L541 112.5L560 48.5L726 9.5L767.5 71H742L756.5 112.5H805.5L836 194.5L948 178.5L996.5 228V206.5Z" stroke="black" stroke-width="16"/>
</svg>
