<svg width="722" height="1447" viewBox="0 0 722 1447" fill="none" xmlns="http://www.w3.org/2000/svg">
<g id="Vector 3" filter="url(#filter0_d_8_34)">
<path d="M-52.8118 1420.48C-52.9737 1422.46 -11.0697 1405.43 -6.69318 1403.55C47.7857 1380.08 101.689 1354.33 154.8 1327.96C203.383 1303.84 253.973 1277.03 297.365 1244.11C318.301 1228.22 334.183 1198.8 345.544 1175.96C380.062 1106.56 369.214 1039.87 348.668 967.462C290.977 764.138 232.6 562.379 224.573 349.445C221.55 269.243 224.734 187.124 238.509 107.9C246.59 61.4241 259.292 0.718208 299.368 -29.8534C343.074 -63.1942 423.952 -53.0447 473.374 -52.2351C549.377 -50.99 624.942 -45.358 700.452 -37.1283" stroke="#44DBF0" stroke-width="35" stroke-linecap="round"/>
</g>
<defs>
<filter id="filter0_d_8_34" x="-74.3115" y="-71.801" width="796.265" height="1517.94" filterUnits="userSpaceOnUse" color-interpolation-filters="sRGB">
<feFlood flood-opacity="0" result="BackgroundImageFix"/>
<feColorMatrix in="SourceAlpha" type="matrix" values="0 0 0 0 0 0 0 0 0 0 0 0 0 0 0 0 0 0 127 0" result="hardAlpha"/>
<feOffset dy="4"/>
<feGaussianBlur stdDeviation="2"/>
<feComposite in2="hardAlpha" operator="out"/>
<feColorMatrix type="matrix" values="0 0 0 0 0 0 0 0 0 0 0 0 0 0 0 0 0 0 0.9 0"/>
<feBlend mode="normal" in2="BackgroundImageFix" result="effect1_dropShadow_8_34"/>
<feBlend mode="normal" in="SourceGraphic" in2="effect1_dropShadow_8_34" result="shape"/>
</filter>
</defs>
</svg>
