<svg width="1746" height="828" viewBox="0 0 1746 828" fill="none" xmlns="http://www.w3.org/2000/svg">
<g id="Vector 11" filter="url(#filter0_d_11_22)">
<path d="M1721.58 216.017C1723.36 214.954 1683.47 189.595 1679.21 187.012C1626.21 154.849 1571.62 124.562 1516.98 95.3252C1466.99 68.5808 1413.51 41.7515 1359.18 24.7627C1332.96 16.5658 1298.29 20.8731 1271.96 25.044C1191.95 37.7163 1141.74 87.3716 1092.54 148.752C954.391 321.102 817.991 493.088 641.559 628.977C575.105 680.16 503.257 727.22 427.456 763.508C382.987 784.796 323.602 810.774 273.284 795.181C218.407 778.176 178.03 703.163 148.766 660.594C103.761 595.128 62.7584 527.377 23.9999 458.098" stroke="#FDED5C" stroke-width="40" stroke-linecap="round"/>
</g>
<defs>
<filter id="filter0_d_11_22" x="-0.00366211" y="0.122925" width="1745.64" height="827.811" filterUnits="userSpaceOnUse" color-interpolation-filters="sRGB">
<feFlood flood-opacity="0" result="BackgroundImageFix"/>
<feColorMatrix in="SourceAlpha" type="matrix" values="0 0 0 0 0 0 0 0 0 0 0 0 0 0 0 0 0 0 127 0" result="hardAlpha"/>
<feOffset dy="4"/>
<feGaussianBlur stdDeviation="2"/>
<feComposite in2="hardAlpha" operator="out"/>
<feColorMatrix type="matrix" values="0 0 0 0 0 0 0 0 0 0 0 0 0 0 0 0 0 0 0.9 0"/>
<feBlend mode="normal" in2="BackgroundImageFix" result="effect1_dropShadow_11_22"/>
<feBlend mode="normal" in="SourceGraphic" in2="effect1_dropShadow_11_22" result="shape"/>
</filter>
</defs>
</svg>
